<svg xmlns="http://www.w3.org/2000/svg" width="500" height="500" viewBox="0 0 500 500"><title>Logo of Anthon OS4 Project</title><path d="M492.857 250a242.857 242.857 0 1 1-485.714 0 242.857 242.857 0 1 1 485.714 0z"/><path d="M250 70.95c-2.926 0-5.824.062-8.716.2l6.047 91.603c.71-.017 1.43-.023 2.146-.023 48.676 0 88.14 38.844 88.14 86.754 0 13.59-3.17 26.46-8.83 37.91l81.475 42.2c11.91-23.978 18.62-51 18.62-79.594 0-98.89-80.087-179.05-178.88-179.05zm-13.758.515c-.16.012-.32.032-.48.045l.023.27.57-.315c-.037.003-.076-.003-.113 0zM92.524 164.997C78.87 190.287 71.122 219.234 71.122 250c0 98.89 80.086 179.05 178.878 179.05 5.01 0 9.97-.2 14.876-.605l-6.115-92.68c-3.05.315-6.15.472-9.284.472-48.675 0-88.138-38.844-88.138-86.753 0-15.592 4.182-30.227 11.5-42.872l-80.313-41.615z" fill="#dedede"/></svg>
