<svg xmlns="http://www.w3.org/2000/svg" width="1000" height="1000" viewBox="0 0 1000 1000"><title>Logo of Anthon Open Source Community</title><g transform="translate(0 -52.362)" color="#000"><circle cx="501.58" cy="552.362" r="475.191" overflow="visible"/><circle r="54.066" cy="550.362" cx="524" overflow="visible" fill="#fff" stroke="#fff" stroke-width=".964"/><path d="M513.842 176.915A373.653 373.653 0 0 0 140.19 550.567 373.653 373.653 0 0 0 513.84 924.22V741.725a191.872 191.872 0 0 1-181.71-191.363A191.872 191.872 0 0 1 513.84 358.85V176.915z" overflow="visible" fill="#c00000"/><path d="M514.768 394.052a156.085 156.085 0 0 0-156.084 156.086 156.085 156.085 0 0 0 156.084 156.084V631.95a82.154 82.154 0 0 1-72.922-81.588 82.154 82.154 0 0 1 72.922-81.533v-74.78z" overflow="visible" fill="#0070c0"/><path d="M531.568 230.53v160.873a159.34 159.34 0 0 1 151.77 158.96 159.34 159.34 0 0 1-151.77 159.07V870.3a319.885 319.885 0 0 0 319.885-319.885A319.885 319.885 0 0 0 531.568 230.53z" overflow="visible" fill="#ffc000"/></g></svg>