<?xml version="1.0" encoding="utf-8"?>
<!-- Generator: Adobe Illustrator 19.1.0, SVG Export Plug-In . SVG Version: 6.00 Build 0)  -->
<svg version="1.1" id="图层_1" xmlns="http://www.w3.org/2000/svg" xmlns:xlink="http://www.w3.org/1999/xlink" x="0px" y="0px"
	 viewBox="0 0 43 43" style="enable-background:new 0 0 43 43;" xml:space="preserve">
<style type="text/css">
	.st0{fill:#F2F2F2;}
</style>
<path class="st0" d="M43,21.5C43,33.4,33.4,43,21.5,43S0,33.4,0,21.5S9.6,0,21.5,0S43,9.6,43,21.5z M28.3,16.3
	c0-4.1-3.2-6.2-6.8-6.2c-3.8,0-6.8,2.8-6.8,6.8h4.2c0-2,0.9-3,2.6-3c1.6,0,2.6,1,2.6,2.5c0,0.7-0.4,1.4-0.9,2.1l-2.7,3
	c-0.8,1.1-1.5,1.9-1.5,3.3V26h5v-0.8c0-0.6,0.1-1.2,0.5-1.7l2.3-3.2C27.7,19.2,28.3,18,28.3,16.3z M24,33v-4h-5v4H24z"/>
</svg>
