<?xml version="1.0" encoding="utf-8"?>
<!-- Generator: Adobe Illustrator 19.0.0, SVG Export Plug-In . SVG Version: 6.00 Build 0)  -->
<svg version="1.1" id="图层_1" xmlns="http://www.w3.org/2000/svg" xmlns:xlink="http://www.w3.org/1999/xlink" x="0px" y="0px"
	 viewBox="0 0 200 200" style="enable-background:new 0 0 200 200;" xml:space="preserve">
<g id="layer1" transform="translate(60,-412.36218)">
	<path id="rect4038_1_" d="M-2.9,470l-8.5-8.5L-20,453"/>
	<path id="rect4032" d="M50.9,526.7h17v17L50.9,526.7z"/>
	<path id="path3149" d="M-20,474.3v68.1
		c0,22.7,15.6,38.3,38.3,38.3h86.5v-17H18.3c-12.8,0-21.3-8.5-21.3-21.3v-13.7V470c0-7.1,0-9.2-6.4-15.6l-9.2-9.2l-12.1,12.1
		l9.2,9.2c1.4,1.4,1.4,2.8,1.4,3.5"/>
	<path id="path3145" d="M41,453c-14.9,0-26.9,12.1-26.9,26.9v9.9l17,17v-17v-9.9
		c0-5.5,4.4-9.9,9.9-9.9c5.5,0,9.9,4.4,9.9,9.9V505v21.7l17,17V505v-25.1c0-5.5,4.4-9.9,9.9-9.9c5.5,0,9.9,4.4,9.9,9.9V505v58.6
		l17,17V479.9c0-14.9-12.1-26.9-26.9-26.9c-7.1,0-13.6,2.8-18.4,7.3C54.6,455.8,48.2,453,41,453z"/>
	<path id="rect4083" d="M-21.2,442.5c-4.3,3.7-8.2,7.9-11.8,12.3l2.6,2.6l12.1-12.1L-21.2,442.5z"
		/>
</g>
</svg>
