<?xml version="1.0" encoding="utf-8"?>
<!-- Generator: Adobe Illustrator 16.0.0, SVG Export Plug-In . SVG Version: 6.00 Build 0)  -->
<!DOCTYPE svg PUBLIC "-//W3C//DTD SVG 1.1//EN" "http://www.w3.org/Graphics/SVG/1.1/DTD/svg11.dtd">
<svg version="1.1" id="图层_1" xmlns="http://www.w3.org/2000/svg" xmlns:xlink="http://www.w3.org/1999/xlink" x="0px" y="0px"
	 width="294.492px" height="105.599px" viewBox="0 0 294.492 105.599" enable-background="new 0 0 294.492 105.599"
	 xml:space="preserve">
<g>
	<path d="M22.8,13.999c1.866,0,3.4,0.167,4.601,0.5c1.199,0.334,2.15,0.767,2.85,1.3c0.7,0.535,1.2,1.117,1.5,1.75
		c0.3,0.635,0.45,1.285,0.45,1.95c0,0.935-0.135,1.834-0.4,2.7c-0.267,0.867-0.567,1.6-0.899,2.2c-0.535-0.465-1.367-1-2.5-1.6
		c-1.135-0.6-2.468-0.9-4-0.9c-1.601,0-3.15,0.367-4.65,1.1c-1.5,0.734-2.85,2.167-4.05,4.3c-1.2,2.135-2.167,5.217-2.9,9.25
		c-0.734,4.035-1.1,9.35-1.1,15.95c0,5.067,0.25,9.217,0.75,12.45c0.5,3.234,1.183,5.767,2.05,7.6c0.865,1.834,1.916,3.035,3.15,3.6
		c1.232,0.567,2.582,0.85,4.05,0.85c1.933,0,3.716-0.333,5.35-1c1.633-0.666,2.917-1.366,3.851-2.1
		c0.332,0.667,0.615,1.435,0.85,2.3c0.232,0.867,0.35,1.734,0.35,2.6c0,1.935-1.134,3.617-3.4,5.051
		c-2.268,1.433-5.268,2.149-9,2.149c-2.4,0.2-4.601-0.084-6.601-0.85s-3.75-2.315-5.25-4.65c-1.5-2.333-2.667-5.7-3.5-10.1
		c-0.834-4.4-1.25-10.233-1.25-17.5c0-8.533,0.616-15.383,1.851-20.55c1.232-5.166,2.8-9.133,4.7-11.9
		c1.899-2.766,4.016-4.533,6.35-5.3C18.333,14.383,20.6,13.999,22.8,13.999z"/>
	<path d="M46.799,83.399c0,0.399-0.051,0.717-0.15,0.95c-0.1,0.234-0.417,0.399-0.95,0.5c-0.534,0.1-1.35,0.149-2.45,0.149
		c-1.1,0-2.684,0-4.75,0v-46.3c0-0.933,0.116-1.65,0.351-2.15c0.232-0.5,0.665-0.865,1.3-1.1c0.633-0.233,1.482-0.366,2.55-0.4
		c1.065-0.033,2.433-0.05,4.101-0.05V83.399z M38.599,19.099c0.065-1.8,0.466-3.25,1.2-4.35c0.732-1.1,1.899-1.65,3.5-1.65
		c1.532,0,2.6,0.434,3.199,1.3c0.601,0.867,0.866,2.367,0.801,4.5c0,2.067-0.385,3.667-1.15,4.8c-0.768,1.134-1.917,1.7-3.45,1.7
		c-1.334,0-2.35-0.465-3.05-1.4C38.949,23.066,38.599,21.434,38.599,19.099z"/>
	<path d="M55.898,37.399c1-0.4,2.133-0.815,3.4-1.25c1.266-0.433,2.6-0.8,4-1.1c1.399-0.3,2.815-0.55,4.25-0.75
		c1.433-0.2,2.815-0.3,4.149-0.3c5.266,0,8.933,1.017,11,3.05c2.065,2.035,3.101,5.484,3.101,10.35v36
		c0,0.399-0.051,0.717-0.15,0.95c-0.1,0.234-0.417,0.399-0.95,0.5c-0.534,0.1-1.367,0.149-2.5,0.149c-1.134,0-2.734,0-4.8,0v-35.2
		c0-3.2-0.367-5.45-1.1-6.75c-0.734-1.3-2.367-1.95-4.9-1.95c-1.067,0-2.284,0.15-3.65,0.45c-1.367,0.3-2.617,0.75-3.75,1.35v40.5
		c0,0.399-0.05,0.717-0.149,0.95c-0.101,0.234-0.417,0.399-0.95,0.5c-0.534,0.1-1.334,0.149-2.4,0.149s-2.6,0-4.6,0V37.399z"/>
	<path d="M94.097,37.399c1-0.4,2.133-0.815,3.4-1.25c1.266-0.433,2.6-0.8,4-1.1c1.399-0.3,2.815-0.55,4.25-0.75
		c1.433-0.2,2.815-0.3,4.149-0.3c5.266,0,8.933,1.017,11,3.05c2.065,2.035,3.101,5.484,3.101,10.35v36
		c0,0.399-0.051,0.717-0.15,0.95c-0.1,0.234-0.417,0.399-0.95,0.5c-0.534,0.1-1.367,0.149-2.5,0.149c-1.134,0-2.734,0-4.8,0v-35.2
		c0-3.2-0.367-5.45-1.1-6.75c-0.734-1.3-2.367-1.95-4.9-1.95c-1.067,0-2.284,0.15-3.65,0.45c-1.367,0.3-2.617,0.75-3.75,1.35v40.5
		c0,0.399-0.05,0.717-0.149,0.95c-0.101,0.234-0.417,0.399-0.95,0.5c-0.534,0.1-1.334,0.149-2.4,0.149s-2.6,0-4.6,0V37.399z"/>
	<path fill="#0090D3" d="M130.795,39.499c0-0.533,0.083-1.05,0.25-1.55c0.166-0.5,0.45-0.916,0.85-1.25
		c0.866-0.533,2.666-1.116,5.4-1.75c2.732-0.633,6-0.95,9.8-0.95c4.333,0,7.483,0.9,9.45,2.7c1.966,1.8,2.95,4.967,2.95,9.5v5.3
		c0,2.867,0,5.75,0,8.65s-0.034,5.7-0.101,8.4c-0.066,2.7-0.134,5.25-0.199,7.65c-0.067,2.4-0.168,4.534-0.301,6.4
		c-1.334,0.8-3.167,1.566-5.5,2.3c-2.334,0.732-5.134,1.1-8.399,1.1c-1.8,0-3.567-0.135-5.3-0.4
		c-1.734-0.267-3.268-0.933-4.601-1.999c-1.334-1.066-2.399-2.616-3.2-4.65c-0.8-2.033-1.199-4.75-1.199-8.15
		c0-3.465,0.383-6.266,1.149-8.4c0.766-2.133,1.766-3.8,3-5c1.233-1.2,2.65-2,4.25-2.4c1.601-0.4,3.233-0.6,4.9-0.6
		c1.133,0,2.383,0.084,3.75,0.25c1.365,0.167,2.55,0.517,3.55,1.05v-7.9c0-2.333-0.534-3.9-1.6-4.7c-1.067-0.8-2.601-1.2-4.601-1.2
		c-2.534,0-5,0.217-7.399,0.65c-2.4,0.435-4.335,0.95-5.801,1.55c-0.467-0.8-0.767-1.616-0.899-2.45
		C130.861,40.816,130.795,40.099,130.795,39.499z M151.295,61.399c-0.667-0.333-1.435-0.565-2.3-0.7c-0.867-0.133-1.667-0.2-2.4-0.2
		c-1,0-1.95,0.117-2.85,0.35c-0.9,0.234-1.685,0.717-2.351,1.45c-0.667,0.734-1.199,1.75-1.6,3.05c-0.4,1.3-0.6,3.05-0.6,5.25
		c0,1.8,0.149,3.267,0.449,4.4c0.301,1.134,0.733,2.017,1.301,2.65c0.565,0.634,1.25,1.05,2.05,1.25c0.8,0.2,1.7,0.3,2.7,0.3
		c1.133,0,2.183-0.166,3.149-0.5c0.966-0.333,1.683-0.733,2.15-1.2c0.065-0.8,0.115-1.85,0.149-3.15
		c0.033-1.3,0.066-2.683,0.101-4.15c0.032-1.466,0.05-2.966,0.05-4.5C151.295,64.166,151.295,62.733,151.295,61.399z"/>
	<path fill="#0090D3" d="M187.595,46.099c-0.067-1.8-0.4-3.083-1-3.85c-0.601-0.766-1.9-1.15-3.9-1.15c-2.334,0-4.6,0.567-6.8,1.7
		v40.601c0,0.399-0.05,0.717-0.15,0.95c-0.1,0.234-0.417,0.399-0.95,0.5c-0.534,0.1-1.35,0.149-2.449,0.149
		c-1.101,0-2.617,0-4.551,0v-47.7c2.2-1,4.566-1.8,7.101-2.4c2.532-0.6,5.2-0.9,8-0.9c2.133,0,3.933,0.267,5.399,0.8
		c1.466,0.535,2.666,1.3,3.601,2.3c1.732-0.933,3.7-1.683,5.899-2.25c2.2-0.566,4.333-0.85,6.4-0.85c2.466,0,4.45,0.317,5.95,0.95
		c1.5,0.634,2.633,1.55,3.399,2.75c0.766,1.2,1.266,2.667,1.5,4.4c0.233,1.734,0.351,3.734,0.351,6v35.3
		c0,0.399-0.05,0.717-0.15,0.95c-0.1,0.234-0.417,0.399-0.95,0.5c-0.534,0.1-1.35,0.149-2.449,0.149c-1.101,0-2.617,0-4.551,0v-37
		c0-2.4-0.316-4.133-0.949-5.2c-0.635-1.065-1.95-1.6-3.95-1.6c-1.135,0-2.25,0.134-3.351,0.4c-1.1,0.267-2.217,0.767-3.35,1.5v40.3
		c0,0.399-0.034,0.717-0.1,0.95c-0.067,0.234-0.351,0.399-0.851,0.5c-0.5,0.1-1.3,0.149-2.399,0.149c-1.101,0-2.685,0-4.75,0V46.099
		z"/>
	<path fill="#0090D3" d="M221.894,59.999c0-9.133,1.449-15.75,4.35-19.85s6.982-6.15,12.25-6.15c2.6,0,4.883,0.384,6.85,1.15
		c1.966,0.767,3.583,2.134,4.851,4.1c1.266,1.967,2.216,4.6,2.85,7.9c0.633,3.3,0.95,7.484,0.95,12.55c0,9.334-1.4,16.05-4.2,20.15
		s-6.867,6.15-12.2,6.15c-2.6,0-4.867-0.3-6.8-0.9c-1.935-0.6-3.567-1.815-4.899-3.649c-1.335-1.833-2.335-4.466-3-7.9
		C222.226,70.116,221.894,65.599,221.894,59.999z M230.694,60.199c0,4.134,0.149,7.434,0.45,9.9c0.3,2.467,0.75,4.367,1.35,5.7
		c0.6,1.334,1.35,2.217,2.25,2.65c0.9,0.434,1.916,0.65,3.05,0.65c1.065,0,2.05-0.266,2.95-0.8c0.9-0.533,1.683-1.533,2.35-3
		c0.666-1.465,1.184-3.433,1.551-5.9c0.365-2.465,0.55-5.666,0.55-9.6c0-4-0.15-7.215-0.45-9.65c-0.3-2.433-0.734-4.315-1.3-5.65
		c-0.567-1.333-1.284-2.233-2.15-2.7c-0.867-0.465-1.899-0.7-3.1-0.7c-1.135,0-2.15,0.267-3.05,0.8c-0.9,0.535-1.685,1.5-2.351,2.9
		c-0.667,1.4-1.185,3.35-1.55,5.85C230.876,53.149,230.694,56.333,230.694,60.199z"/>
	<path fill="#0090D3" d="M260.793,37.399c1-0.4,2.133-0.815,3.4-1.25c1.266-0.433,2.6-0.8,4-1.1c1.399-0.3,2.815-0.55,4.25-0.75
		c1.433-0.2,2.815-0.3,4.149-0.3c5.266,0,8.933,1.017,11,3.05c2.065,2.035,3.101,5.484,3.101,10.35v36
		c0,0.399-0.051,0.717-0.15,0.95c-0.1,0.234-0.417,0.399-0.95,0.5c-0.534,0.1-1.367,0.149-2.5,0.149c-1.134,0-2.734,0-4.8,0v-35.2
		c0-3.2-0.367-5.45-1.1-6.75c-0.734-1.3-2.367-1.95-4.9-1.95c-1.067,0-2.284,0.15-3.65,0.45c-1.367,0.3-2.617,0.75-3.75,1.35v40.5
		c0,0.399-0.05,0.717-0.149,0.95c-0.101,0.234-0.417,0.399-0.95,0.5c-0.534,0.1-1.334,0.149-2.4,0.149s-2.6,0-4.6,0V37.399z"/>
</g>
<g>
</g>
<g>
</g>
<g>
</g>
<g>
</g>
<g>
</g>
<g>
</g>
<g>
</g>
<g>
</g>
<g>
</g>
<g>
</g>
<g>
</g>
<g>
</g>
<g>
</g>
<g>
</g>
<g>
</g>
</svg>
