<svg xmlns="http://www.w3.org/2000/svg" viewBox="0 0 200 200"><path d="M57.1 57.638l-8.5-8.5-8.6-8.5M110.9 114.338h17v17l-17-17z"/><path d="M40 61.938v68.1c0 22.7 15.6 38.3 38.3 38.3h86.5v-17H78.3c-12.8 0-21.3-8.5-21.3-21.3v-72.4c0-7.1 0-9.2-6.4-15.6l-9.2-9.2-12.1 12.1 9.2 9.2c1.4 1.4 1.4 2.8 1.4 3.5"/><path d="M101 40.638c-14.9 0-26.9 12.1-26.9 26.9v9.9l17 17v-26.9c0-5.5 4.4-9.9 9.9-9.9s9.9 4.4 9.9 9.9v46.8l17 17V67.538c0-5.5 4.4-9.9 9.9-9.9s9.9 4.4 9.9 9.9v83.7l17 17v-100.7c0-14.9-12.1-26.9-26.9-26.9-7.1 0-13.6 2.8-18.4 7.3-4.8-4.5-11.2-7.3-18.4-7.3zM38.8 30.138c-4.3 3.7-8.2 7.9-11.8 12.3l2.6 2.6 12.1-12.1-2.9-2.8z"/></svg>