<?xml version="1.0" encoding="utf-8"?>
<!-- Generator: Adobe Illustrator 18.1.0, SVG Export Plug-In . SVG Version: 6.00 Build 0)  -->
<svg version="1.1" id="Layer_1" xmlns="http://www.w3.org/2000/svg" xmlns:xlink="http://www.w3.org/1999/xlink" x="0px" y="0px"
	 viewBox="0 0 900 201.7" enable-background="new 0 0 900 201.7" xml:space="preserve">
<path fill="#32B352" d="M805.8,37.1L857.1,0l15.4,26.1l-55.5,29.3L805.8,37.1z M838,88.9c-10.5,0-23.5,6.8-25.6,28.8l46.6-0.8
	C860,97.3,852.9,88.9,838,88.9z M897.6,138.1h-85.8c1.3,22.8,17.5,33.7,42.1,33.7c17.5,0,31.4-3.9,42.1-8.4l-2.6,27.5
	c-15.2,7.6-34.5,10.2-47.9,10.2c-43.4,0-75.6-22.8-75.6-68.8c0-40.3,29.3-69,70.4-69c40.3,0,59.7,23.5,59.7,55.4
	C900,123.5,899.2,132.6,897.6,138.1z M751.1,41.6c-12.8,0-17.5,5.8-17.5,18v9.9h30.1L760,98.4l-26.4-1.6V198h-43.2V99.1l-19.3-2.4
	V72.2l19.3-3.1V57.5c0-25.9,9.7-44.2,47.1-44.2c6.3,0,18.6,1,28.5,4.2l1.6,26.4C761.1,42.1,754.8,41.6,751.1,41.6z M608.8,139.7
	c-7.8-1.6-13.4-2.3-20.2-2.3c-12.8,0-23.3,5.2-23.3,19.9c0,12.8,9.7,18.1,19.9,18.1c9.7,0,18.6-5.5,23.5-13.9V139.7z M615.3,201.1
	l-4.2-18.6h-1.3c-11,14.1-25.1,19.1-39.8,19.1c-23.3,0-47.3-12.8-47.3-41.1c0-35.1,32.2-43.7,55.5-43.7c8.4,0,14.7,0.5,30.6,2.6
	v-7.8c0-12.8-7.6-19.9-29.6-19.9c-13.9,0-31.1,3.7-44.7,9.2l1.8-28.5c20.4-7.6,44.7-9.4,51.5-9.4c48.4,0,63.8,16.7,63.8,46v59.6
	l3.1,28L615.3,201.1z M464.6,166.9c13.6,0,25.9-2.6,39.5-8.1V193c-17.8,6.3-35.3,8.1-48.7,8.1c-51.3,0-93.1-29.8-93.1-88.4
	c0-53.9,41.3-90.8,93.4-90.8c14.9,0,31.6,2.4,48.4,8.4v33.2c-12.3-5-23.8-7.6-37.7-7.6c-31.9,0-58.3,18.8-58.3,56.5
	C408.1,152.2,433.8,166.9,464.6,166.9z M341.2,96.5l-30.9-1.8v49.7c0,18.8,2.6,26.9,17,26.9c4.2,0,11-0.5,17.8-4.2l-1.6,27.5
	c-10.5,5-24.9,6.5-30.9,6.5c-35.3,0-45.8-16.5-45.8-45.8l0.8-58.1l-19.9-2.4V70.1l20.4-2.9l5.5-30.9l28.8-5.2h8.6l-0.8,36.4h34.5
	L341.2,96.5z M228.1,198H185V67.7l43.2-3.4V198z M206.2,48.9c-12.8,0-23-10.2-23-23.5c0-13.1,10.2-23.8,23-23.8
	c13.3,0,23.8,10.7,23.8,23.8C230,38.7,219.5,48.9,206.2,48.9z M157.5,115.1v72.7c-21.7,9.9-43.9,13.3-64.1,13.3
	C41.9,201.1,0,171.3,0,112.7C0,58.9,41.3,22,93.4,22c15.4,0,31.9,2.4,48.4,8.4v33.2c-12.3-5-24.1-7.6-37.7-7.6
	c-31.9,0-58.3,18.6-58.3,56.5c0,39.8,25.9,55.2,56.5,55.2c6,0,12.3-0.5,18.3-1.6v-47.6L157.5,115.1z"/>
<g>
</g>
<g>
</g>
<g>
</g>
<g>
</g>
<g>
</g>
<g>
</g>
</svg>
