<svg xmlns="http://www.w3.org/2000/svg" viewBox="0 0 900 201.7"><path fill="#32B352" d="M805.8 37.1L857.1 0l15.4 26.1L817 55.4l-11.2-18.3zM838 88.9c-10.5 0-23.5 6.8-25.6 28.8l46.6-.8c1-19.6-6.1-28-21-28zm59.6 49.2h-85.8c1.3 22.8 17.5 33.7 42.1 33.7 17.5 0 31.4-3.9 42.1-8.4l-2.6 27.5c-15.2 7.6-34.5 10.2-47.9 10.2-43.4 0-75.6-22.8-75.6-68.8 0-40.3 29.3-69 70.4-69 40.3 0 59.7 23.5 59.7 55.4 0 4.8-.8 13.9-2.4 19.4zM751.1 41.6c-12.8 0-17.5 5.8-17.5 18v9.9h30.1L760 98.4l-26.4-1.6V198h-43.2V99.1l-19.3-2.4V72.2l19.3-3.1V57.5c0-25.9 9.7-44.2 47.1-44.2 6.3 0 18.6 1 28.5 4.2l1.6 26.4c-6.5-1.8-12.8-2.3-16.5-2.3zm-142.3 98.1c-7.8-1.6-13.4-2.3-20.2-2.3-12.8 0-23.3 5.2-23.3 19.9 0 12.8 9.7 18.1 19.9 18.1 9.7 0 18.6-5.5 23.5-13.9v-21.8zm6.5 61.4l-4.2-18.6h-1.3c-11 14.1-25.1 19.1-39.8 19.1-23.3 0-47.3-12.8-47.3-41.1 0-35.1 32.2-43.7 55.5-43.7 8.4 0 14.7.5 30.6 2.6v-7.8c0-12.8-7.6-19.9-29.6-19.9-13.9 0-31.1 3.7-44.7 9.2l1.8-28.5c20.4-7.6 44.7-9.4 51.5-9.4 48.4 0 63.8 16.7 63.8 46v59.6l3.1 28-39.4 4.5zm-150.7-34.2c13.6 0 25.9-2.6 39.5-8.1V193c-17.8 6.3-35.3 8.1-48.7 8.1-51.3 0-93.1-29.8-93.1-88.4 0-53.9 41.3-90.8 93.4-90.8 14.9 0 31.6 2.4 48.4 8.4v33.2c-12.3-5-23.8-7.6-37.7-7.6-31.9 0-58.3 18.8-58.3 56.5 0 39.8 25.7 54.5 56.5 54.5zM341.2 96.5l-30.9-1.8v49.7c0 18.8 2.6 26.9 17 26.9 4.2 0 11-.5 17.8-4.2l-1.6 27.5c-10.5 5-24.9 6.5-30.9 6.5-35.3 0-45.8-16.5-45.8-45.8l.8-58.1-19.9-2.4V70.1l20.4-2.9 5.5-30.9 28.8-5.2h8.6l-.8 36.4h34.5l-3.5 29zM228.1 198H185V67.7l43.2-3.4V198zM206.2 48.9c-12.8 0-23-10.2-23-23.5 0-13.1 10.2-23.8 23-23.8 13.3 0 23.8 10.7 23.8 23.8 0 13.3-10.5 23.5-23.8 23.5zm-48.7 66.2v72.7c-21.7 9.9-43.9 13.3-64.1 13.3-51.5 0-93.4-29.8-93.4-88.4C0 58.9 41.3 22 93.4 22c15.4 0 31.9 2.4 48.4 8.4v33.2c-12.3-5-24.1-7.6-37.7-7.6-31.9 0-58.3 18.6-58.3 56.5 0 39.8 25.9 55.2 56.5 55.2 6 0 12.3-.5 18.3-1.6v-47.6l36.9-3.4z"/></svg>