<?xml version="1.0" encoding="utf-8"?>
<!-- Generator: Adobe Illustrator 19.0.0, SVG Export Plug-In . SVG Version: 6.00 Build 0)  -->
<svg version="1.1" id="图层_1" xmlns="http://www.w3.org/2000/svg" xmlns:xlink="http://www.w3.org/1999/xlink" x="0px" y="0px"
	 viewBox="0 0 200 200" style="enable-background:new 0 0 200 200;" xml:space="preserve">
<g id="g15043_5_" transform="matrix(2.438586,0,0,2.438586,3659.952,1113.451)">
	<g id="g15045_5_">
		<path id="path15047_5_" d="M-1438.9-444.8c-12.3,0-14.6,17.5-7.7,17.5C-1439.6-427.3-1426.6-444.8-1438.9-444.8z"/>
		<path id="path15049_5_" d="M-1459.3-429.4c3.7,0.2,7.7-14.1,0.8-13.2C-1465.4-441.7-1463-429.7-1459.3-429.4z"/>
		<path id="path15051_5_" d="M-1476.2-420.6c2.6-1.2,0.3-12.4-4.1-9.4C-1484.7-426.8-1478.8-419.4-1476.2-420.6z"/>
		<path id="path15053_5_" d="M-1468.8-426.5c3.1-0.6,3.3-13.4-2.3-11.1C-1476.6-435.3-1471.9-425.8-1468.8-426.5L-1468.8-426.5z"/>
		<path id="path15055_5_" d="M-1452.5-397.8c0.6,4.2-3.1,6.3-6.7,3.6c-11.4-8.7,18.9-13,16.9-24.8c-1.7-9.8-31.8-6.8-35.3,8.6
			c-2.3,10.4,9.6,24.8,22,24.8c6.1,0,13.2-5.5,14.5-12.5C-1440.1-403.5-1453-401.4-1452.5-397.8L-1452.5-397.8z"/>
	</g>
</g>
</svg>
