<svg xmlns="http://www.w3.org/2000/svg" viewBox="0 0 200 200"><path d="M151.07 28.768c-29.994 0-35.603 42.675-18.777 42.675 17.07 0 48.772-42.675 18.778-42.675zM101.323 66.322c9.023.488 18.778-34.384 1.95-32.19-16.825 2.196-10.972 31.46-1.95 32.19zM60.11 87.782c6.342-2.927.733-30.24-9.997-22.923-10.73 7.802 3.658 25.848 9.998 22.922zM78.157 73.394c7.56-1.463 8.047-32.677-5.61-27.068-13.41 5.61-1.95 28.775 5.61 27.068zM117.906 143.38c1.463 10.244-7.56 15.365-16.34 8.78-27.8-21.215 46.09-31.7 41.213-60.477-4.146-23.898-77.548-16.582-86.083 20.972-5.608 25.362 23.41 60.477 53.65 60.477 14.875 0 32.19-13.412 35.36-30.482 2.437-13.168-29.02-8.047-27.8.73z"/></svg>