<?xml version="1.0" encoding="utf-8"?>
<!-- Generator: Adobe Illustrator 19.0.0, SVG Export Plug-In . SVG Version: 6.00 Build 0)  -->
<svg version="1.1" id="图层_1" xmlns="http://www.w3.org/2000/svg" xmlns:xlink="http://www.w3.org/1999/xlink" x="0px" y="0px"
	 viewBox="0 0 200 200" style="enable-background:new 0 0 200 200;" xml:space="preserve">
<g id="XMLID_147_">
	<g id="XMLID_143_">
		<path id="XMLID_171_" d="M146.5,134.9c-11.7-16.6-23.3-33.3-35-50c0,15.3,0,30.5,0,45.8c-8.6,1.1-17.1,2.2-25.7,3.3
			c0-35,0-70.1,0-105.1c8.5-0.6,17.1-1.2,25.7-1.8c0,15.4,0,30.7,0,46.1c0.4-0.5,0.7-0.8,0.9-1.2c4.5-6,9.1-12,13.6-18
			c4-5.3,8-10.5,11.9-15.8c2.6-3.5,5.3-6.9,7.9-10.4c0.2-0.2,0.3-0.2,0.6-0.2c4.7,1.2,9.4,2.4,14,3.5c4.2,1.1,8.4,2.1,12.7,3.2
			c0.2,0,0.3,0.1,0.5,0.2c-0.5,0.6-0.9,1.2-1.3,1.7c-3.7,4.7-7.5,9.4-11.2,14.1c-5,6.3-9.9,12.6-14.9,18.9c-2.4,3.1-4.9,6.2-7.3,9.2
			c-0.2,0.3-0.2,0.5,0,0.8c5.8,8,11.6,16.1,17.3,24.1c4.3,6.1,8.7,12.1,13,18.2c1.2,1.7,2.4,3.4,3.7,5.1c0.1,0.1,0.2,0.3,0.3,0.4
			C164.2,129.6,155.4,132.2,146.5,134.9z"/>
		<path id="XMLID_170_" d="M53.7,156.4c-3.7-3.8-7.4-7.5-11.1-11.3c4.3-6,8.6-12,12.9-18c-1.4-2.3-2.6-4.7-3.6-7.2
			c-1-2.5-1.9-5.1-2.5-7.8c-0.1-0.3-0.2-0.4-0.5-0.5c-6.6-1.1-13.2-2.3-19.7-3.5c-0.4-0.1-0.8-0.2-1.2-0.2
			c0.2-5.2,0.4-10.3,0.6-15.5c1.9-0.3,3.7-0.7,5.6-1c5-0.9,10-1.8,15-2.8c0.2,0,0.3-0.1,0.4-0.4c0.8-3.3,1.9-6.5,3.4-9.5
			c0.9-1.7,1.8-3.4,2.8-5c0.1-0.3,0-0.4-0.1-0.6c-2.4-3.5-4.7-7.1-7.1-10.6c-1.4-2-2.7-4.1-4.1-6.1c0.5-0.5,1-1.1,1.6-1.6
			c0.8-0.8,1.6-1.5,2.4-2.3c1.9-1.9,3.8-3.7,5.8-5.6c0.4-0.4,0.7-0.7,1.1-1.1c0.2-0.2,0.3-0.2,0.5,0c2.8,2,5.6,4,8.5,6
			c2.5,1.8,5,3.5,7.5,5.3c0.1,0.1,0.1,0.1,0.2,0.2c2.7-1.7,5.5-3.2,8.5-4.3c0,0.2,0,0.3,0,0.4c0,3.6,0,7.2,0,10.8
			c0,0.2-0.1,0.4-0.3,0.5c-3.2,1.7-6.1,3.7-8.8,6.1c-2.3,2.1-4.3,4.4-6,7c-3.3,4.9-5.4,10.3-6.4,16.2c-0.4,2.7-0.6,5.4-0.5,8.1
			c0.2,4.8,1.2,9.5,3.1,13.9c1.6,3.9,3.9,7.5,6.6,10.7c3,3.4,6.4,6.3,10.3,8.6c3.7,2.2,7.7,3.7,11.9,4.7c2.3,0.5,4.5,0.8,6.8,0.9
			c6.3,0.3,12.3-0.9,18.1-3.5c3.7-1.6,7.1-3.8,10.1-6.5c2.5-2.2,4.6-4.6,6.5-7.2c0.1-0.1,0.1-0.2,0.2-0.3
			c4.1,5.8,8.1,11.6,12.1,17.5c1.7-0.5,3.5-1.1,5.2-1.6c0.4-0.1,0.7-0.2,1.1-0.3c0.1,0,0.3,0,0.4,0.1c1.4,2,2.9,4,4.3,6
			c-3.7,3.8-7.4,7.5-11.1,11.3c-0.7-0.5-1.3-0.9-2-1.4c-5.2-3.7-10.5-7.4-15.7-11.1c-0.3-0.2-0.4-0.2-0.7,0
			c-4.5,2.8-9.3,4.8-14.4,6.1c-0.2,0.1-0.3,0.2-0.3,0.4c-0.6,3.7-1.2,7.4-1.9,11.2c-0.6,3.5-1.2,7-1.8,10.5c0,0.1,0,0.2-0.1,0.3
			c-5.3,0-10.6,0-15.9,0c-1.3-7.4-2.7-14.7-4-22.1c-2.7-0.6-5.3-1.4-7.9-2.5c-2.5-1.1-5-2.3-7.3-3.8C66.1,148,59.9,152.2,53.7,156.4
			z"/>
		<path id="XMLID_169_" d="M170.3,107.9c-1,0.2-2.1,0.4-3.1,0.5c0,0,0,0,0,0c-0.4,0.1-0.9,0.3-1.3,0.1c-0.3-0.1-0.5-0.6-0.7-1
			c-3.4-4.9-6.8-9.8-10.1-14.7c-0.8-1.1-1.5-2.2-2.3-3.3c0-0.1-0.1-0.1-0.1-0.2c1,0.2,2,0.3,2.9,0.5c2.8,0.5,5.7,1,8.5,1.5
			c1.9,0.3,3.8,0.7,5.8,1c0.3,0,0.4,0.2,0.4,0.4c0,2.3,0,4.7,0.1,7c0,2,0.1,4,0.1,6C170.3,106.4,170.3,107.2,170.3,107.9z"/>
	</g>
</g>
</svg>
