<svg xmlns="http://www.w3.org/2000/svg" viewBox="0 0 200 200"><path d="M146.5 134.9c-11.7-16.6-23.3-33.3-35-50v45.8c-8.6 1.1-17.1 2.2-25.7 3.3V28.9c8.5-.6 17.1-1.2 25.7-1.8v46.1c.4-.5.7-.8.9-1.2 4.5-6 9.1-12 13.6-18 4-5.3 8-10.5 11.9-15.8 2.6-3.5 5.3-6.9 7.9-10.4.2-.2.3-.2.6-.2 4.7 1.2 9.4 2.4 14 3.5 4.2 1.1 8.4 2.1 12.7 3.2.2 0 .3.1.5.2-.5.6-.9 1.2-1.3 1.7-3.7 4.7-7.5 9.4-11.2 14.1-5 6.3-9.9 12.6-14.9 18.9-2.4 3.1-4.9 6.2-7.3 9.2-.2.3-.2.5 0 .8 5.8 8 11.6 16.1 17.3 24.1 4.3 6.1 8.7 12.1 13 18.2 1.2 1.7 2.4 3.4 3.7 5.1.1.1.2.3.3.4-9 2.6-17.8 5.2-26.7 7.9z"/><path d="M53.7 156.4c-3.7-3.8-7.4-7.5-11.1-11.3l12.9-18c-1.4-2.3-2.6-4.7-3.6-7.2s-1.9-5.1-2.5-7.8c-.1-.3-.2-.4-.5-.5-6.6-1.1-13.2-2.3-19.7-3.5-.4-.1-.8-.2-1.2-.2.2-5.2.4-10.3.6-15.5 1.9-.3 3.7-.7 5.6-1 5-.9 10-1.8 15-2.8.2 0 .3-.1.4-.4.8-3.3 1.9-6.5 3.4-9.5.9-1.7 1.8-3.4 2.8-5 .1-.3 0-.4-.1-.6-2.4-3.5-4.7-7.1-7.1-10.6-1.4-2-2.7-4.1-4.1-6.1.5-.5 1-1.1 1.6-1.6.8-.8 1.6-1.5 2.4-2.3 1.9-1.9 3.8-3.7 5.8-5.6l1.1-1.1c.2-.2.3-.2.5 0 2.8 2 5.6 4 8.5 6 2.5 1.8 5 3.5 7.5 5.3l.2.2c2.7-1.7 5.5-3.2 8.5-4.3V64.2c0 .2-.1.4-.3.5-3.2 1.7-6.1 3.7-8.8 6.1-2.3 2.1-4.3 4.4-6 7-3.3 4.9-5.4 10.3-6.4 16.2-.4 2.7-.6 5.4-.5 8.1.2 4.8 1.2 9.5 3.1 13.9 1.6 3.9 3.9 7.5 6.6 10.7 3 3.4 6.4 6.3 10.3 8.6 3.7 2.2 7.7 3.7 11.9 4.7 2.3.5 4.5.8 6.8.9 6.3.3 12.3-.9 18.1-3.5 3.7-1.6 7.1-3.8 10.1-6.5 2.5-2.2 4.6-4.6 6.5-7.2.1-.1.1-.2.2-.3 4.1 5.8 8.1 11.6 12.1 17.5 1.7-.5 3.5-1.1 5.2-1.6.4-.1.7-.2 1.1-.3.1 0 .3 0 .4.1 1.4 2 2.9 4 4.3 6-3.7 3.8-7.4 7.5-11.1 11.3-.7-.5-1.3-.9-2-1.4-5.2-3.7-10.5-7.4-15.7-11.1-.3-.2-.4-.2-.7 0-4.5 2.8-9.3 4.8-14.4 6.1-.2.1-.3.2-.3.4-.6 3.7-1.2 7.4-1.9 11.2l-1.8 10.5c0 .1 0 .2-.1.3H91.4c-1.3-7.4-2.7-14.7-4-22.1-2.7-.6-5.3-1.4-7.9-2.5-2.5-1.1-5-2.3-7.3-3.8-6.1 4-12.3 8.2-18.5 12.4zM170.3 107.9c-1 .2-2.1.4-3.1.5-.4.1-.9.3-1.3.1-.3-.1-.5-.6-.7-1-3.4-4.9-6.8-9.8-10.1-14.7-.8-1.1-1.5-2.2-2.3-3.3 0-.1-.1-.1-.1-.2 1 .2 2 .3 2.9.5 2.8.5 5.7 1 8.5 1.5 1.9.3 3.8.7 5.8 1 .3 0 .4.2.4.4 0 2.3 0 4.7.1 7 0 2 .1 4 .1 6-.2.7-.2 1.5-.2 2.2z"/></svg>