<?xml version="1.0" encoding="UTF-8" standalone="no"?>
<svg
   xmlns:dc="http://purl.org/dc/elements/1.1/"
   xmlns:cc="http://creativecommons.org/ns#"
   xmlns:rdf="http://www.w3.org/1999/02/22-rdf-syntax-ns#"
   xmlns:svg="http://www.w3.org/2000/svg"
   xmlns="http://www.w3.org/2000/svg"
   xmlns:xlink="http://www.w3.org/1999/xlink"
   version="1.1"
   id="svg2"
   width="200"
   height="200"
   viewBox="0 0 200 200">
  <metadata
     id="metadata14">
    <rdf:RDF>
      <cc:Work
         rdf:about="">
        <dc:format>image/svg+xml</dc:format>
        <dc:type
           rdf:resource="http://purl.org/dc/dcmitype/StillImage" />
        <dc:title></dc:title>
      </cc:Work>
    </rdf:RDF>
  </metadata>
  <defs
     id="defs12" />
  <path
     id="path6"
     fill="#ffffff"
     fill-opacity="0.0"
     d="M0 100V0h200v200H0V100z" />
  <path
     id="path8"
     fill="#b9170d"
     d="M88 199.401c-18.806-3.467-29.921-7.617-42.688-15.937-21.086-13.74-36.29-35.257-42.536-60.19C1.017 116.251.58 111.606.58 100c0-16.107 1.741-25.342 7.312-38.776C10.881 54.015 21.275 37 22.69 37c.404 0 1.695 1.205 2.87 2.677l2.134 2.677 3.087-2.198C34.927 37.204 41.427 35 45.989 35c5.927 0 10.464 6.022 10.145 13.466-.022.532-3.675 1.748-8.117 2.704-9.426 2.028-17.28 5.987-20.306 10.236-3.307 4.644-3.538 13.82-.495 19.594 3.224 6.117 9.303 9.356 16.15 8.602 6.653-.732 13.34-4.175 15.956-8.214 1.198-1.85 2.432-3.369 2.743-3.376.31-.006 1.311 1.554 2.224 3.468 1.52 3.187 1.936 3.428 4.935 2.856 1.802-.343 3.381-.701 3.51-.797.684-.508-7.971-46.097-9.204-48.482-2.08-4.023-7.016-7.87-11.072-8.63-5.009-.94-13.037.295-19.958 3.07l-6 2.407 5.5-5.129C61.748-.965 106.544-7.687 143.5 10.043c13.628 6.538 26.759 17.188 35.438 28.744C184.38 46.03 184.8 47 182.5 47c-.825 0-1.5-.675-1.5-1.5s-.45-1.5-1-1.5-1 .852-1 1.893c0 1.982-1.84 3.107-5.082 3.107-1.848 0-2.51 1.074-1.368 2.217.303.302 2.103.2 4-.228 2.375-.536 3.454-.422 3.464.366.008.63.276 2.126.598 3.324.505 1.884.13 2.223-2.764 2.5-2.819.27-3.348.716-3.348 2.821 0 2.068.54 2.552 3.125 2.804 1.913.186 3.764-.336 4.775-1.347.908-.908 2.3-1.402 3.094-1.098 2.557.981 2.704-1.311.159-2.471-3.996-1.82-4.137-9.74-.153-8.559.55.163 2.719 3.778 4.82 8.033 8.148 16.501 11.515 39.978 8.338 58.149C196.768 126.32 193.29 138 191.96 138c-.528 0-.96-.486-.96-1.08 0-.679-1.113-.835-3-.42-2.65.582-3.01.387-3.084-1.67-.047-1.282-.406-4.902-.8-8.045-.696-5.577-.651-5.728 1.88-6.284 2.3-.505 2.548-.968 2.183-4.09-.376-3.228-.631-3.47-3.08-2.933l-2.669.586-1.835-11.032c-1.01-6.067-2.118-11.038-2.465-11.046-.346-.008-8.221 1.44-17.5 3.216l-16.87 3.23.675 6.034c2.062 18.456 2.196 16.458-1.15 17.127-2.758.552-2.94.846-2.327 3.753.56 2.646 1.078 3.111 3.22 2.887 2.245-.234 2.63.19 3.177 3.5.343 2.072.633 5.567.645 7.767.012 2.2.288 5.608.613 7.572l.591 3.573 14.648-2.817c8.056-1.55 14.76-2.82 14.898-2.823.688-.014.12 4.37-.785 6.06-.756 1.414-2.104 1.935-5 1.935-4.222 0-4.588.54-2.89 4.264.98 2.15 1.502 2.303 5.934 1.735 4.601-.59 4.804-.519 3.811 1.337-2.346 4.385-16.868 17.77-25.044 23.085-16.532 10.746-31.754 15.47-51.776 16.068-6.875.205-13.625.166-15-.088zm46.941-39.922c1.917-6.457 4.915-20.783 5.024-24.01.031-.926-5.96-3.808-6.595-3.173-.144.144-.986 3.771-1.872 8.06-1.379 6.676-4.45 17.748-6.153 22.188-.48 1.249 3.888 4.33 6.26 4.416.607.022 2.108-3.344 3.336-7.48zm-22.783-9.229c-.188-2.888.037-5.256.5-5.264.463-.008 1.81-.273 2.993-.59 1.779-.478 2.268-.043 2.83 2.513.505 2.304 1.23 3.087 2.848 3.076 4.734-.034 4.726-.254-1.054-30.488-3.049-15.948-5.82-29.293-6.16-29.655-.556-.595-18.789 2.487-19.594 3.312-.186.19 1.412 9.346 3.55 20.346 2.14 11 4.852 25.087 6.028 31.305l2.138 11.304 3.132-.305c3.122-.303 3.13-.32 2.79-5.554zm-3.075-16.426c-2.743-13.406-6.847-35.347-6.653-35.564.119-.131 1.581-.512 3.25-.846l3.034-.607 3.643 18.573c4.065 20.725 4.252 22.62 2.225 22.62-.78 0-2.091.258-2.914.574-1.142.438-1.753-.683-2.585-4.75zm25.432-18.853c1.9-3.674 1.51-4.408-3.78-7.106l-4.13-2.107-2.313 2.69-2.314 2.689 4.761 3.328c2.619 1.831 5.087 3.375 5.485 3.432.399.057 1.43-1.26 2.291-2.926zM23 112c0-2.222.467-3 1.8-3 2.669 0 4.2-2.008 4.2-5.509 0-4.98-2.02-6.912-6.474-6.189-2.076.337-3.937.776-4.136.975-.2.2.306 3.858 1.124 8.13.817 4.273 1.486 7.954 1.486 8.181 0 .227.45.412 1 .412s1-1.35 1-3zm-1.153-7.436C20.433 101.46 21.364 99 23.95 99c2.158 0 3.728 3.792 2.69 6.498-.885 2.305-3.554 1.785-4.793-.934zm-15.325.865c-.899-4.78-.935-6.69-.131-6.925 5.31-1.56 5.273-1.59 6.563 5.625.745 4.17 1.718 6.871 2.476 6.871.982 0 .942-1.655-.188-7.75-.79-4.263-1.558-7.877-1.706-8.033-.462-.486-8.195.954-9.52 1.774-1.004.62-1.02 2.168-.075 7.593 1.294 7.428 1.778 8.708 3.009 7.947.447-.276.254-3.472-.428-7.102zm30.454-2.368c1.295-3.31 1.858-3.936 2.362-2.623.364.95.662 2.589.662 3.644 0 1.055.598 1.918 1.328 1.918 1.066 0 1.136-1.197.355-6.045-1.21-7.517-3.26-7.68-5.701-.455l-1.69 5-.734-4.25c-1.085-6.283-2.9-5.393-2.038 1 .39 2.888.923 5.611 1.186 6.053.968 1.627 2.615-.01 4.27-4.242zm16.774-.324c1.546-1.215 1.653-4.737.143-4.737-.609 0-.848-.675-.531-1.5 1.039-2.708-.447-4.5-3.719-4.485-5.399.027-5.997.963-4.678 7.317 1.158 5.578 1.17 5.591 4.348 4.99 1.753-.332 3.75-1.045 4.437-1.585zm-6.117-2.25c-.487-1.269-.075-1.55 1.904-1.303 3.132.392 3.715 2.209.84 2.619-1.245.178-2.38-.366-2.744-1.316zM47 95.573c0-.927.855-1.573 2.083-1.573 2.437 0 2.093 2.337-.416 2.823-.987.192-1.667-.318-1.667-1.25zm96.153.41l2.654-6.352 15.846-3.08c15.662-3.042 15.85-3.11 16.164-5.82.196-1.696-.232-2.953-1.12-3.294-.791-.303-7.445.6-14.787 2.006C154.57 80.849 148.3 82 147.982 82c-.32 0-.397-1.575-.172-3.5.349-2.984.11-3.5-1.619-3.5-1.115 0-2.72-.266-3.567-.59-1.06-.408-1.682.137-1.997 1.75-2.166 11.109-3.1 14.78-4.74 18.605l-1.891 4.41 2.252 1.877c1.239 1.033 2.702 1.743 3.252 1.58.55-.163 2.194-3.155 3.653-6.649zm-77.477 4.507c.182-.555-1.09-1.005-2.828-1-4.472.014-4.776-2.225-.412-3.044 3.785-.71 4.183-1.42 2.529-4.512-1.274-2.38-5.233-2.523-7.486-.27-1.798 1.798-1.44 6.473.692 9.042 1.286 1.55 6.981 1.386 7.505-.216zM59 93.573c0-.927.855-1.573 2.083-1.573 2.437 0 2.093 2.337-.416 2.823-.987.192-1.667-.318-1.667-1.25zm14.976 5.177c-.013-.688-.407-2.9-.876-4.916-.753-3.243-.606-3.748 1.274-4.377l2.126-.71-2.145-.43c-1.18-.236-3.655.01-5.5.548-3.113.906-3.192 1.027-1.094 1.675 1.335.413 2.5 1.776 2.843 3.33 1.13 5.11 1.54 6.13 2.463 6.13.513 0 .922-.563.91-1.25zM82 97.5c0-.825-.675-1.5-1.5-1.5s-1.5.675-1.5 1.5.675 1.5 1.5 1.5 1.5-.675 1.5-1.5zm50-9.504c0-.526-2.35-2.298-5.223-3.938l-5.222-2.983-1.948 3.077c-1.634 2.58-1.719 3.207-.528 3.88.782.442 3.221 2.116 5.421 3.72l4 2.917 1.75-2.858c.963-1.573 1.75-3.29 1.75-3.815zM80.273 90.75C79.609 85.092 78.99 83 77.98 83c-1.263 0-1.238 2.536.072 7.25 1.279 4.607 2.74 4.936 2.22.5zm14.284-12.869c4.16-1.047 5.162-1.829 3.927-3.064-.284-.284-2.871.096-5.75.843-5.918 1.537-7.997 1.151-7.564-1.403.163-.966-.145-1.883-.686-2.038-1.526-.436-1.813 4.957-.314 5.907 1.826 1.158 5.127 1.08 10.387-.245zm12.54-5.7c1.255-6.138 4.903-7.866 4.903-2.322 0 4.707 3.402 6.596 6.429 3.57C120.15 71.707 120.605 65 119 65c-.55 0-1 1.295-1 2.878 0 1.582-.656 3.422-1.459 4.088-1.208 1.003-1.562.723-2.06-1.628-.922-4.36-2.048-5.845-4.362-5.759-1.165.044-2.119.041-2.119-.006s.419-1.546.93-3.33c.74-2.58.638-3.243-.5-3.243-.786 0-1.43.113-1.431.25-.001.138-.676 4.075-1.499 8.75-.824 4.675-1.498 8.65-1.499 8.833 0 .184.55.15 1.223-.074.674-.225 1.516-1.835 1.873-3.578zm21.495-2.431c-.362-1.788-.933-5.838-1.268-9-.421-3.978-1.041-5.75-2.012-5.75-1.06 0-1.258.917-.81 3.75.325 2.063.82 5.325 1.098 7.25.754 5.212 1.417 7 2.592 7 .662 0 .811-1.217.4-3.25zm12.158-.38c1.238-.332 2.25-1.194 2.25-1.917 0-1.006-.76-1.096-3.243-.383-5.397 1.547-6.757 1.215-6.757-1.653 0-2.873-2.277-2.902-2.833-.036-.748 3.86 4.161 5.71 10.583 3.989zm19.467-3.54c3.204-1.233 4.325-3.949 2.803-6.792-1.22-2.28-5.803-2.76-9.166-.96-1.77.948-1.974.802-1.684-1.206.257-1.78 1.309-2.522 4.757-3.358 2.434-.59 4.63-1.686 4.88-2.435.444-1.332-1.186-1.208-7.057.536-1.143.34-1.75-.023-1.75-1.048 0-.862-.675-1.567-1.5-1.567s-1.5.869-1.5 1.93c0 1.217-.803 2.05-2.172 2.25-1.194.176-2.378.946-2.63 1.711-.351 1.066.19 1.229 2.311.696 2.704-.678 2.756-.61 2.196 2.84-.701 4.325.545 5.323 3.259 2.61 2.457-2.458 6.852-2.68 7.73-.392.856 2.231-2.257 4.355-6.385 4.355-2.349 0-3.309.458-3.309 1.58 0 1.246.684 1.444 3.25.937 1.788-.353 4.473-1.112 5.967-1.687zm-69.967-.387C93.497 64.985 95 64.3 95 63.28c0-.91-.58-1.27-1.488-.922-.818.314-3.743.87-6.5 1.236-3.385.449-5.012 1.132-5.012 2.103 0 .898.658 1.247 1.75.928.963-.28 3.888-.812 6.5-1.18zm80.515-10.224c-.696-4.484-1.715-8.055-2.265-7.936-1.13.245-.905 4.69.638 12.574 1.698 8.677 3.081 4.733 1.627-4.638zM140 55.474c0-.962-1.01-1.043-4.25-.341-5.926 1.283-6.956 1.725-6.34 2.721.803 1.3 10.59-.9 10.59-2.38zm46.007 91.276c-.005-3.086.347-3.75 1.993-3.75 2.498 0 2.498.729 0 4.5l-1.987 3-.007-3.75zm-30.447-4.674c-.189-.317-.505-3.93-.702-8.029l-.358-7.452 10.73-2.148c12.287-2.46 11.234-3.107 12.294 7.553l.647 6.5-11.134 2.076c-6.124 1.141-11.289 1.816-11.477 1.5zm15.857-7.863l1.672-3.286-4.702-2.08-4.703-2.08-1.82 2.366c-1 1.302-1.823 2.592-1.827 2.867-.007.46 9.307 5.933 9.586 5.632.067-.072.875-1.61 1.794-3.419zm-18.916-22.203c-.386-3.844-.679-7.332-.65-7.75.047-.699 15.5-4.062 19.296-4.2 1.253-.046 1.912 1.458 2.75 6.272 1.69 9.698 2.121 9.085-7.733 10.974-13.525 2.593-12.844 2.857-13.663-5.296zm15.044-.098c1.491-2.883 1.476-3.179-.224-4.46-1.002-.754-3.059-1.816-4.572-2.36-2.469-.887-2.903-.695-4.23 1.87-1.464 2.832-1.437 2.884 2.752 5.41 2.326 1.402 4.33 2.567 4.453 2.589.124.021.943-1.35 1.821-3.049zM39.251 79.463c-3.278-2.296-4.665-8.536-2.858-12.86 1.7-4.07 5.366-6.216 14.757-8.637l6.65-1.715.6 3c1.227 6.136.636 11.4-1.67 14.851-4.053 6.067-12.69 8.716-17.479 5.361zM176 60c0-.55 1.152-1 2.559-1 1.451 0 2.292.433 1.941 1-.34.55-1.491 1-2.559 1S176 60.55 176 60z" />
</svg>
