<svg xmlns="http://www.w3.org/2000/svg" viewBox="0 0 200 200"><path class="st0" d="M29 57.1v82.8l70.1-41.4"/><path class="st0" d="M104.5 57.3C93 57.3 82.6 61.9 75 69.4l6.3 3.9c6.1-5.5 14.3-8.9 23.2-8.9 19.2 0 34.7 15.5 34.7 34.7s-15.5 34.7-34.7 34.7c-9 0-17.3-3.5-23.4-9.1l-6.3 3.9c7.6 7.6 18.1 12.4 29.7 12.4 23.1 0 41.9-18.7 41.9-41.9s-18.8-41.8-41.9-41.8z"/><path class="st0" d="M104.7 29.4c-21.5 0-40.7 9.8-53.5 25.1l6 3.7c11.5-13.3 28.5-21.8 47.4-21.8 34.5 0 62.5 28 62.5 62.5s-28 62.5-62.5 62.5c-19 0-36-8.4-47.4-21.8l-5.9 3.9c12.8 15.4 31.8 24.9 53.3 24.9 38.4 0 69.5-31.1 69.5-69.5s-31-69.5-69.4-69.5z"/></svg>