<?xml version="1.0" encoding="utf-8"?>
<!-- Generator: Adobe Illustrator 19.0.0, SVG Export Plug-In . SVG Version: 6.00 Build 0)  -->
<svg version="1.1" id="图层_1" xmlns="http://www.w3.org/2000/svg" xmlns:xlink="http://www.w3.org/1999/xlink" x="0px" y="0px"
	 viewBox="0 0 200 200" style="enable-background:new 0 0 200 200;" xml:space="preserve">
<g id="XMLID_150_">
	<g id="XMLID_149_">
		<polygon id="XMLID_155_" class="st0" points="29,57.1 29,139.9 99.1,98.5 		"/>
		<path id="XMLID_156_" class="st0" d="M104.5,57.3C93,57.3,82.6,61.9,75,69.4l6.3,3.9c6.1-5.5,14.3-8.9,23.2-8.9
			c19.2,0,34.7,15.5,34.7,34.7s-15.5,34.7-34.7,34.7c-9,0-17.3-3.5-23.4-9.1l-6.3,3.9c7.6,7.6,18.1,12.4,29.7,12.4
			c23.1,0,41.9-18.7,41.9-41.9S127.6,57.3,104.5,57.3z"/>
		<path id="XMLID_157_" class="st0" d="M104.7,29.4c-21.5,0-40.7,9.8-53.5,25.1l6,3.7c11.5-13.3,28.5-21.8,47.4-21.8
			c34.5,0,62.5,28,62.5,62.5s-28,62.5-62.5,62.5c-19,0-36-8.4-47.4-21.8l-5.9,3.9c12.8,15.4,31.8,24.9,53.3,24.9
			c38.4,0,69.5-31.1,69.5-69.5S143.1,29.4,104.7,29.4z"/>
	</g>
</g>
</svg>
