<?xml version="1.0" encoding="utf-8"?>
<!-- Generator: Adobe Illustrator 18.1.0, SVG Export Plug-In . SVG Version: 6.00 Build 0)  -->
<svg version="1.1" id="图层_1" xmlns="http://www.w3.org/2000/svg" xmlns:xlink="http://www.w3.org/1999/xlink" x="0px" y="0px"
	 viewBox="0 0 301.1 96.5" enable-background="new 0 0 301.1 96.5" xml:space="preserve">
<g>
	<g>
		<polygon fill="#00A971" points="40,87.5 55.7,78.4 55.7,96.5 		"/>
		<polygon fill="#00A971" points="58.2,56 73.9,65.1 58.2,74.1 		"/>
		<polygon fill="#00A971" points="59.4,53.9 75.1,44.8 75.1,62.9 		"/>
		<polygon fill="#00A971" points="58.2,33.6 73.9,42.7 58.2,51.7 		"/>
		<polygon fill="#00A971" points="1.2,20.3 16.9,11.2 16.9,29.3 		"/>
		<polygon fill="#00A971" points="0,22.4 15.7,31.5 0,40.5 		"/>
		<polygon fill="#00A971" points="0,44.8 15.7,53.9 0,62.9 		"/>
		<polygon fill="#00A971" points="58.2,11.2 73.9,20.3 58.2,29.3 		"/>
		<polygon fill="#00A971" points="59.4,31.5 75.1,22.4 75.1,40.5 		"/>
		<polygon fill="#00A971" points="40,20.3 55.7,11.2 55.7,29.3 		"/>
		<polygon fill="#00A971" points="40,65 55.7,56 55.7,74.1 		"/>
		<polygon fill="#00A971" points="20.6,9.1 36.3,0 36.3,18.1 		"/>
		<polygon fill="#00A971" points="38.8,0 54.5,9.1 38.8,18.1 		"/>
		<polygon fill="#00A971" points="38.8,67.2 54.5,76.2 38.8,85.3 		"/>
		<polygon fill="#00A971" points="19.4,56 35.1,65.1 19.4,74.1 		"/>
		<polygon fill="#00A971" points="19.4,11.2 35.1,20.2 19.4,29.3 		"/>
		<polygon fill="#00A971" points="1.2,42.7 16.9,33.6 16.9,51.7 		"/>
		<polygon fill="#00A971" points="1.2,65.1 16.9,56 16.9,74.1 		"/>
		<polygon fill="#00A971" points="20.6,76.3 36.3,67.2 36.3,85.3 		"/>
	</g>
	<g>
		<g>
			<g>
				<path fill="#3E3D49" d="M226.8,32.5c0,1.9-2.4,4.2-4.5,5.3c1.8,0.9,2.8,1.5,3.7,2c0.7,0.4,0.9,0.8,0.6,1.5
					c-0.2,0.5-1,1.7-1.6,1.7c-0.5,0-0.8-0.2-1.5-0.7c-1.2-0.8-3.9-2.4-6.9-3.7c-2.7-1.1-6-3.9-6-6.2V17.9c0-2.9,5.3-6.7,8.1-6.7
					c2.9,0,8.2,3.9,8.2,6.7V32.5z M214.6,32c0,1.5,2.7,3.4,4,3.4c1.4,0,4.1-2,4.1-3.4V18.4c0-1.4-2.7-3.4-4.1-3.4c-1.3,0-4,2-4,3.4
					V32z"/>
				<path fill="#3E3D49" d="M235.6,37.9c0,0.5-0.4,0.9-0.9,0.9h-2.3c-0.5,0-0.9-0.4-0.9-0.9V12.5c0-0.5,0.4-0.9,0.9-0.9h2.3
					c0.5,0,0.9,0.4,0.9,0.9V37.9z"/>
				<path fill="#3E3D49" d="M244.8,20.5v17.4c0,0.5-0.4,0.9-1,0.9h-2.1c-0.5,0-1-0.4-1-0.9V12.5c0-0.5,0.5-0.9,1-0.9h1.7
					c0.7,0,1,0.3,1.3,0.9l8.4,17.6V12.5c0-0.5,0.4-0.9,0.9-0.9h2.1c0.5,0,1,0.4,1,0.9v25.4c0,0.5-0.4,0.9-1,0.9h-1.7
					c-0.6,0-1-0.5-1.3-0.9L244.8,20.5z"/>
				<path fill="#3E3D49" d="M270.8,24.1c0-0.5,0.5-0.9,1-0.9h5.1c0.5,0,1.3,0.8,1.3,1.3v8c0,2.8-5.2,6.7-8.1,6.7
					c-2.8,0-8.1-3.9-8.1-6.7V17.9c0-2.9,5.4-6.7,8.1-6.7c1.8,0,4.4,1.4,6.4,2.6c0.5,0.3,0.7,0.9,0.4,1.4l-0.7,1.4
					c-0.2,0.5-0.9,0.6-1.5,0.3c-1.5-0.8-3.5-1.8-4.6-1.8c-1.2,0-4,2-4,3.4V32c0,1.4,2.7,3.4,4,3.4c1.2,0,4-2.1,4-3.4v-5.1h-2.3
					c-0.5,0-1-0.4-1-0.9V24.1z"/>
			</g>
			<g>
				<path fill="#3E3D49" d="M214.6,66.9c0,1.5,2.9,3.5,4,3.5c1.2,0,2.9-0.9,4.4-1.7c0.6-0.3,1.3-0.1,1.5,0.4l0.7,1.4
					c0.3,0.5,0.1,1.1-0.4,1.4c-1.9,1.2-4.2,2.4-6.2,2.4c-2.7,0-8.1-3.7-8.1-6.7V52.8c0-2.9,5.3-6.7,8.1-6.7c1.7,0,4.1,1.2,6.1,2.3
					c0.5,0.2,0.7,0.9,0.4,1.4l-0.6,1.3c-0.2,0.5-0.9,0.7-1.4,0.4c-1.5-0.7-3.2-1.7-4.4-1.7c-1.2,0-4,2-4,3.5V66.9z"/>
				<path fill="#3E3D49" d="M228.6,72V47.4c0-0.5,0.5-0.9,1-0.9h2.2c0.5,0,1,0.4,1,0.9v22.7h7.8c0.5,0,1,0.4,1,0.9v1.8
					c0,0.5-0.4,0.9-1,0.9h-10.3C229.7,73.7,228.6,72.6,228.6,72z"/>
				<path fill="#3E3D49" d="M259.5,67.4c0,2.9-5.3,6.7-8.2,6.7c-2.8,0-8.1-3.8-8.1-6.7V52.8c0-2.9,5.3-6.7,8.1-6.7
					c2.9,0,8.2,3.9,8.2,6.7V67.4z M247.3,66.9c0,1.5,2.7,3.4,4,3.4c1.4,0,4.1-2,4.1-3.4V53.4c0-1.4-2.7-3.4-4.1-3.4
					c-1.3,0-4,2-4,3.4V66.9z"/>
				<path fill="#3E3D49" d="M272.1,74.1c-2.7,0-8.1-3.7-8.1-6.7V47.4c0-0.5,0.5-0.9,1-0.9h2.2c0.5,0,1,0.4,1,0.9v19.5
					c0,1.4,2.7,3.4,4,3.4c1.3,0,4-2,4-3.4V47.4c0-0.5,0.4-0.9,0.9-0.9h2.3c0.5,0,1,0.4,1,0.9v20.1C280.2,70.3,274.8,74.1,272.1,74.1
					z"/>
				<path fill="#3E3D49" d="M301.1,67.3c0,2.5-4.6,6.4-7.5,6.4h-6.5c-1.2,0-2-0.7-2-1.5V48.1c0-0.9,0.9-1.6,2-1.6h6.4
					c2.9,0,7.5,3.6,7.5,6.4V67.3z M297,53.5c0-1.4-2.5-3.4-4-3.4h-3.7v20.1h3.8c1.4,0,3.9-2.1,3.9-3.4V53.5z"/>
			</g>
		</g>
		<g>
			<g>
				<path fill="#3E3D49" d="M154.9,20.3H197c0.6,0,1.1-0.5,1.1-1.1v-4.7c0-0.6-0.5-1.1-1.1-1.1h-42.1c-0.6,0-1.1,0.5-1.1,1.1v4.7
					C153.8,19.8,154.3,20.3,154.9,20.3z"/>
				<path fill="#3E3D49" d="M197.7,32.5h-43.7c-0.6,0-1.1,0.5-1.1,1.1v4.7c0,0.6,0.5,1.1,1.1,1.1h6.1l-4.8,27
					c-0.3,1.5,0.7,2.9,2.1,3.3l17.8,4.4c0.2,0.1,0.5,0.1,0.7,0.1c0.2,0,0.5,0,0.7-0.1l17.8-4.4c1.3-0.3,2.2-1.5,2.2-2.8v-1.8V57V50
					c0-0.6-0.5-1.1-1.1-1.1h-5.1c-0.6,0-1.1,0.5-1.1,1.1v14.3l-12.2,3c-0.4,0.1-0.7,0.1-1.1,0.1c-0.4,0-0.8,0-1.1-0.1l-11.7-2.9
					l4.5-24.9h30.2c0.6,0,1.1-0.5,1.1-1.1v-4.7C198.8,33,198.3,32.5,197.7,32.5z"/>
			</g>
			<g>
				<path fill="#3E3D49" d="M144.3,33.1h-19.4v-3.8H141c0.6,0,1.1-0.5,1.1-1.1v-3.6c0-0.6-0.5-1.1-1.1-1.1h-16.2v-3.8H142
					c0.6,0,1.1-0.5,1.1-1.1v-3.6c0-0.6-0.5-1.1-1.1-1.1h-17.2v-1.7c0-0.6-0.5-1.1-1.1-1.1h-5.1c-0.6,0-1.1,0.5-1.1,1.1V14h-17.2
					c-0.6,0-1.1,0.5-1.1,1.1v3.6c0,0.6,0.5,1.1,1.1,1.1h17.2v3.8h-16.2c-0.6,0-1.1,0.5-1.1,1.1v3.6c0,0.6,0.5,1.1,1.1,1.1h16.2v3.8
					H98.1c-0.6,0-1.1,0.5-1.1,1.1v3.6c0,0.6,0.5,1.1,1.1,1.1h46.2c0.6,0,1.1-0.5,1.1-1.1v-3.6C145.3,33.6,144.9,33.1,144.3,33.1z"/>
				<path fill="#3E3D49" d="M139.1,42.9l-17.7-1.3c-0.1,0-0.1,0-0.2,0c-0.1,0-0.1,0-17.9,1.3c-1.5,0.1-2.7,1.4-2.7,2.9v2.7v22.6v1.1
					c0,0.6,0.5,1.1,1.1,1.1h4.8c0.6,0,1.1-0.5,1.1-1.1v-5.8h27.3v5.8c0,0.6,0.5,1.1,1.1,1.1h4.8c0.6,0,1.1-0.5,1.1-1.1v-2.1V48.4
					v-2.7C141.8,44.2,140.6,43,139.1,42.9z M134.8,48.3v0.1v1.2v1.8h-27.3v-1.8v-1.2v-0.1c4.7-0.3,12.3-0.9,13.6-1L134.8,48.3z
					 M107.5,60.6v-3.5h27.3v3.5H107.5z"/>
			</g>
		</g>
	</g>
</g>
<g>
</g>
<g>
</g>
<g>
</g>
<g>
</g>
<g>
</g>
<g>
</g>
<g>
</g>
<g>
</g>
<g>
</g>
<g>
</g>
<g>
</g>
<g>
</g>
<g>
</g>
<g>
</g>
<g>
</g>
</svg>
