<svg xmlns="http://www.w3.org/2000/svg" viewBox="0 0 301.1 96.5"><g fill="#00A971"><path d="M40 87.5l15.7-9.1v18.1M58.2 56l15.7 9.1-15.7 9M59.4 53.9l15.7-9.1v18.1M58.2 33.6l15.7 9.1-15.7 9M1.2 20.3l15.7-9.1v18.1M0 22.4l15.7 9.1-15.7 9M0 44.8l15.7 9.1-15.7 9M58.2 11.2l15.7 9.1-15.7 9M59.4 31.5l15.7-9.1v18.1M40 20.3l15.7-9.1v18.1M40 65l15.7-9v18.1M20.6 9.1L36.3 0v18.1M38.8 0l15.7 9.1-15.7 9M38.8 67.2l15.7 9-15.7 9.1M19.4 56l15.7 9.1-15.7 9M19.4 11.2l15.7 9-15.7 9.1M1.2 42.7l15.7-9.1v18.1M1.2 65.1L16.9 56v18.1M20.6 76.3l15.7-9.1v18.1"/></g><g fill="#3E3D49"><path d="M226.8 32.5c0 1.9-2.4 4.2-4.5 5.3 1.8.9 2.8 1.5 3.7 2 .7.4.9.8.6 1.5-.2.5-1 1.7-1.6 1.7-.5 0-.8-.2-1.5-.7-1.2-.8-3.9-2.4-6.9-3.7-2.7-1.1-6-3.9-6-6.2V17.9c0-2.9 5.3-6.7 8.1-6.7 2.9 0 8.2 3.9 8.2 6.7v14.6zm-12.2-.5c0 1.5 2.7 3.4 4 3.4 1.4 0 4.1-2 4.1-3.4V18.4c0-1.4-2.7-3.4-4.1-3.4-1.3 0-4 2-4 3.4V32zM235.6 37.9c0 .5-.4.9-.9.9h-2.3c-.5 0-.9-.4-.9-.9V12.5c0-.5.4-.9.9-.9h2.3c.5 0 .9.4.9.9v25.4zM244.8 20.5v17.4c0 .5-.4.9-1 .9h-2.1c-.5 0-1-.4-1-.9V12.5c0-.5.5-.9 1-.9h1.7c.7 0 1 .3 1.3.9l8.4 17.6V12.5c0-.5.4-.9.9-.9h2.1c.5 0 1 .4 1 .9v25.4c0 .5-.4.9-1 .9h-1.7c-.6 0-1-.5-1.3-.9l-8.3-17.4zM270.8 24.1c0-.5.5-.9 1-.9h5.1c.5 0 1.3.8 1.3 1.3v8c0 2.8-5.2 6.7-8.1 6.7-2.8 0-8.1-3.9-8.1-6.7V17.9c0-2.9 5.4-6.7 8.1-6.7 1.8 0 4.4 1.4 6.4 2.6.5.3.7.9.4 1.4l-.7 1.4c-.2.5-.9.6-1.5.3-1.5-.8-3.5-1.8-4.6-1.8-1.2 0-4 2-4 3.4V32c0 1.4 2.7 3.4 4 3.4 1.2 0 4-2.1 4-3.4v-5.1h-2.3c-.5 0-1-.4-1-.9v-1.9z"/><g><path d="M214.6 66.9c0 1.5 2.9 3.5 4 3.5 1.2 0 2.9-.9 4.4-1.7.6-.3 1.3-.1 1.5.4l.7 1.4c.3.5.1 1.1-.4 1.4-1.9 1.2-4.2 2.4-6.2 2.4-2.7 0-8.1-3.7-8.1-6.7V52.8c0-2.9 5.3-6.7 8.1-6.7 1.7 0 4.1 1.2 6.1 2.3.5.2.7.9.4 1.4l-.6 1.3c-.2.5-.9.7-1.4.4-1.5-.7-3.2-1.7-4.4-1.7-1.2 0-4 2-4 3.5v13.6zM228.6 72V47.4c0-.5.5-.9 1-.9h2.2c.5 0 1 .4 1 .9v22.7h7.8c.5 0 1 .4 1 .9v1.8c0 .5-.4.9-1 .9h-10.3c-.6 0-1.7-1.1-1.7-1.7zM259.5 67.4c0 2.9-5.3 6.7-8.2 6.7-2.8 0-8.1-3.8-8.1-6.7V52.8c0-2.9 5.3-6.7 8.1-6.7 2.9 0 8.2 3.9 8.2 6.7v14.6zm-12.2-.5c0 1.5 2.7 3.4 4 3.4 1.4 0 4.1-2 4.1-3.4V53.4c0-1.4-2.7-3.4-4.1-3.4-1.3 0-4 2-4 3.4v13.5zM272.1 74.1c-2.7 0-8.1-3.7-8.1-6.7v-20c0-.5.5-.9 1-.9h2.2c.5 0 1 .4 1 .9v19.5c0 1.4 2.7 3.4 4 3.4 1.3 0 4-2 4-3.4V47.4c0-.5.4-.9.9-.9h2.3c.5 0 1 .4 1 .9v20.1c-.2 2.8-5.6 6.6-8.3 6.6zM301.1 67.3c0 2.5-4.6 6.4-7.5 6.4h-6.5c-1.2 0-2-.7-2-1.5V48.1c0-.9.9-1.6 2-1.6h6.4c2.9 0 7.5 3.6 7.5 6.4v14.4zM297 53.5c0-1.4-2.5-3.4-4-3.4h-3.7v20.1h3.8c1.4 0 3.9-2.1 3.9-3.4V53.5z"/></g><g><path d="M154.9 20.3H197c.6 0 1.1-.5 1.1-1.1v-4.7c0-.6-.5-1.1-1.1-1.1h-42.1c-.6 0-1.1.5-1.1 1.1v4.7c0 .6.5 1.1 1.1 1.1zM197.7 32.5H154c-.6 0-1.1.5-1.1 1.1v4.7c0 .6.5 1.1 1.1 1.1h6.1l-4.8 27c-.3 1.5.7 2.9 2.1 3.3l17.8 4.4c.2.1.5.1.7.1.2 0 .5 0 .7-.1l17.8-4.4c1.3-.3 2.2-1.5 2.2-2.8V50c0-.6-.5-1.1-1.1-1.1h-5.1c-.6 0-1.1.5-1.1 1.1v14.3l-12.2 3c-.4.1-.7.1-1.1.1-.4 0-.8 0-1.1-.1l-11.7-2.9 4.5-24.9h30.2c.6 0 1.1-.5 1.1-1.1v-4.7c-.2-.7-.7-1.2-1.3-1.2z"/><g><path d="M144.3 33.1h-19.4v-3.8H141c.6 0 1.1-.5 1.1-1.1v-3.6c0-.6-.5-1.1-1.1-1.1h-16.2v-3.8H142c.6 0 1.1-.5 1.1-1.1V15c0-.6-.5-1.1-1.1-1.1h-17.2v-1.7c0-.6-.5-1.1-1.1-1.1h-5.1c-.6 0-1.1.5-1.1 1.1V14h-17.2c-.6 0-1.1.5-1.1 1.1v3.6c0 .6.5 1.1 1.1 1.1h17.2v3.8h-16.2c-.6 0-1.1.5-1.1 1.1v3.6c0 .6.5 1.1 1.1 1.1h16.2v3.8H98.1c-.6 0-1.1.5-1.1 1.1v3.6c0 .6.5 1.1 1.1 1.1h46.2c.6 0 1.1-.5 1.1-1.1v-3.6c-.1-.7-.5-1.2-1.1-1.2zM139.1 42.9l-17.7-1.3h-.2c-.1 0-.1 0-17.9 1.3-1.5.1-2.7 1.4-2.7 2.9V72.2c0 .6.5 1.1 1.1 1.1h4.8c.6 0 1.1-.5 1.1-1.1v-5.8h27.3v5.8c0 .6.5 1.1 1.1 1.1h4.8c.6 0 1.1-.5 1.1-1.1V45.7c-.1-1.5-1.3-2.7-2.8-2.8zm-4.3 5.4v3.1h-27.3v-3.1c4.7-.3 12.3-.9 13.6-1l13.7 1zm-27.3 12.3v-3.5h27.3v3.5h-27.3z"/></g></g></g></svg>