<?xml version="1.0" encoding="utf-8"?>
<!-- Generator: Adobe Illustrator 19.0.0, SVG Export Plug-In . SVG Version: 6.00 Build 0)  -->
<svg version="1.1" id="图层_1" xmlns="http://www.w3.org/2000/svg" xmlns:xlink="http://www.w3.org/1999/xlink" x="0px" y="0px"
	 viewBox="0 0 200 200" style="enable-background:new 0 0 200 200;" xml:space="preserve">
<style type="text/css">
	.st0{stroke:#000000;stroke-miterlimit:10;}
</style>
<g id="XMLID_151_">
	<g id="XMLID_152_">
		<path id="XMLID_207_" class="st0" d="M74.6,76c-3.4,0.9-3.9-1-4.9-2.9C65.8,66,62.3,58.6,57.5,52c-4.3-6-10.5-5.3-14.7,0.9
			c-1.4,2.1-2.8,4.8-2.7,7.1c0.1,5.8,0.7,11.6,1.9,17.2c0.9,4.2,0.8,7.9-0.7,11.9c-5.5,15.2-9.1,30.7-7.3,47
			c1.6,14,7.8,24.6,21.6,28.7c8,2.4,16.1,2.6,24.3,0.9c26.8-5.7,51.3-16.8,74.3-31.3c5.6-3.5,10.4-8.4,15-13.1
			c3.3-3.4,3.7-7.9,2.2-12.5c-2.6-7.8-8.3-12.9-15.1-16.8c-16.8-9.5-35.5-12.8-54.3-15.6c-5.1-0.8-5.1-0.5-5.1-5.5
			c0.1-8.5-0.5-16.9-3.4-24.9c-2.2-6.3-7-9.5-12.3-8.7c-6.2,0.9-10.6,5.7-10.7,12.4c0,4.3,0.5,8.7,1.1,12.9
			C72.4,67,73.6,71.4,74.6,76z M145.1,77.3c0.6,0.8,1.3,2.8,2,2.7c1.5-0.1,3.5-0.8,4.2-1.9c4-6.2,8.1-12.5,11.5-19
			c3.7-7.1,6.7-14.6,9.9-22c0.4-0.9,0-2.3-0.1-3.4c-1.2,0.2-2.6,0-3.6,0.6c-1.3,0.8-2.5,2-3.5,3.3c-7.6,9.8-13.8,20.5-18.4,32
			C146.1,71.8,145.8,74.4,145.1,77.3z M141.3,26.4c-0.5,0-1,0.1-1.5,0.1c-0.9,2.4-2.3,4.6-2.8,7.1c-1.7,8.7-3.3,17.5-4.5,26.3
			c-0.6,4.4-0.3,8.9-0.1,13.3c0,0.9,1.3,1.8,2,2.7c0.9-0.8,2.1-1.4,2.5-2.4c0.9-2.3,1.6-4.7,2.1-7.1c2.6-11.4,4.3-22.9,3.8-34.6
			C142.8,29.9,141.8,28.2,141.3,26.4z"/>
	</g>
</g>
</svg>
