<svg id="图层_1" xmlns="http://www.w3.org/2000/svg" viewBox="0 0 200 200"><style>.st0{stroke:#000000;stroke-miterlimit:10;}</style><g id="XMLID_151_"><g id="XMLID_152_"><path id="XMLID_207_" class="st0" d="M74.6 76c-3.4.9-3.9-1-4.9-2.9C65.8 66 62.3 58.6 57.5 52c-4.3-6-10.5-5.3-14.7.9-1.4 2.1-2.8 4.8-2.7 7.1.1 5.8.7 11.6 1.9 17.2.9 4.2.8 7.9-.7 11.9-5.5 15.2-9.1 30.7-7.3 47 1.6 14 7.8 24.6 21.6 28.7 8 2.4 16.1 2.6 24.3.9 26.8-5.7 51.3-16.8 74.3-31.3 5.6-3.5 10.4-8.4 15-13.1 3.3-3.4 3.7-7.9 2.2-12.5-2.6-7.8-8.3-12.9-15.1-16.8-16.8-9.5-35.5-12.8-54.3-15.6-5.1-.8-5.1-.5-5.1-5.5.1-8.5-.5-16.9-3.4-24.9-2.2-6.3-7-9.5-12.3-8.7-6.2.9-10.6 5.7-10.7 12.4 0 4.3.5 8.7 1.1 12.9.8 4.4 2 8.8 3 13.4zm70.5 1.3c.6.8 1.3 2.8 2 2.7 1.5-.1 3.5-.8 4.2-1.9 4-6.2 8.1-12.5 11.5-19 3.7-7.1 6.7-14.6 9.9-22 .4-.9 0-2.3-.1-3.4-1.2.2-2.6 0-3.6.6-1.3.8-2.5 2-3.5 3.3-7.6 9.8-13.8 20.5-18.4 32-1 2.2-1.3 4.8-2 7.7zm-3.8-50.9c-.5 0-1 .1-1.5.1-.9 2.4-2.3 4.6-2.8 7.1-1.7 8.7-3.3 17.5-4.5 26.3-.6 4.4-.3 8.9-.1 13.3 0 .9 1.3 1.8 2 2.7.9-.8 2.1-1.4 2.5-2.4.9-2.3 1.6-4.7 2.1-7.1 2.6-11.4 4.3-22.9 3.8-34.6 0-1.9-1-3.6-1.5-5.4z"/></g></g></svg>